<svg width="121" height="121" viewBox="0 0 121 121" fill="none" xmlns="http://www.w3.org/2000/svg">
<g clip-path="url(#clip0_32_373)">
<path fill-rule="evenodd" clip-rule="evenodd" d="M103.933 24.8287C104.42 23.4171 104.913 21.991 105.454 20.5654C105.064 20.4791 104.67 20.4152 104.274 20.3739C101.499 20.3739 98.7243 20.3487 95.9497 20.3236C89.3879 20.2642 82.8282 20.2048 76.282 20.4779C70.016 20.7351 65.3562 24.2101 62.7504 30.0383C62.0125 31.6903 61.455 33.4234 60.8971 35.1575C60.7157 35.7212 60.5344 36.2849 60.3468 36.8461C60.075 37.6629 59.8349 38.4897 59.5823 39.3598C59.3779 40.0638 59.1653 40.7961 58.921 41.5744H66.569C68.6921 41.5711 70.8152 41.582 72.9383 41.5929C77.917 41.6185 82.8956 41.6441 87.8743 41.4868C93.288 41.3117 97.7238 38.6411 100.242 33.9402C101.769 31.0898 102.838 27.9959 103.933 24.8287ZM57.7662 43.7332C57.9184 43.265 58.0742 42.7856 58.2357 42.2904C57.8991 42.2682 57.6038 42.2442 57.3313 42.2221C56.9314 42.1896 56.5805 42.1611 56.22 42.1481H44.8899C41.4353 42.1385 38.0696 43.245 35.2925 45.3034C32.5153 47.3618 30.4748 50.2624 29.4737 53.5747C28.7733 55.8336 28.0189 58.0655 27.2639 60.2993C27.0001 61.0797 26.7362 61.8604 26.4745 62.6426L26.4507 62.7135C24.2735 69.1912 22.0963 75.6689 19.9191 82.1521C18.9554 85.0212 18.0106 87.9039 17.0658 90.7868C16.6662 92.0059 16.2666 93.2251 15.8656 94.4433C15.1718 96.6269 14.4616 98.8159 13.6804 101.213H15.2209C16.479 101.213 17.7377 101.221 18.9966 101.229C21.515 101.244 24.0342 101.26 26.551 101.213C28.0006 101.202 29.4439 101.018 30.8503 100.666C35.7178 99.3576 39.4871 96.4955 41.4592 91.8165C42.6531 88.9861 43.6034 86.054 44.5531 83.1239C44.9071 82.0317 45.261 80.9398 45.6274 79.8536C45.9802 78.8211 46.1452 78.3137 46.4943 78.0643C46.8318 77.8233 47.3413 77.8233 48.3589 77.8233C50.1323 77.8233 51.9111 77.8337 53.6902 77.844C57.249 77.8647 60.8086 77.8854 64.3269 77.8233C69.604 77.7303 73.6957 75.2294 76.8314 71.1031C78.4508 68.9919 79.2054 66.4974 79.961 63.9996C80.2964 62.8911 80.6319 61.7819 81.0433 60.7053C81.2808 60.0882 81.4679 59.4534 81.6799 58.7341C81.78 58.3945 81.8857 58.036 82.0048 57.6517H80.0218H55.04C53.3082 57.6517 53.1772 57.5094 53.7234 55.8677C54.3502 53.9487 54.9974 52.0344 55.6446 50.1202C56.0014 49.0646 56.3582 48.0091 56.7116 46.9529C57.0618 45.9007 57.4037 44.8485 57.7662 43.7332Z" fill="url(#paint0_linear_32_373)"/>
</g>
<defs>
<linearGradient id="paint0_linear_32_373" x1="60.6886" y1="19.2382" x2="60.6886" y2="101.244" gradientUnits="userSpaceOnUse">
<stop stop-color="#1709B5"/>
<stop offset="1" stop-color="#F539C0"/>
</linearGradient>
<clipPath id="clip0_32_373">
<rect width="94" height="82" fill="white" transform="translate(13.6968 19.2566)"/>
</clipPath>
</defs>
</svg>
