<svg width="195" height="34" viewBox="0 0 195 34" fill="none" xmlns="http://www.w3.org/2000/svg">
<g clip-path="url(#clip0_32_1057)">
<g clip-path="url(#clip1_32_1057)">
<path fill-rule="evenodd" clip-rule="evenodd" d="M42.2948 5.37975C42.4513 4.92679 42.6095 4.46915 42.783 4.01168C42.658 3.98399 42.5316 3.96347 42.4043 3.95022C41.514 3.95022 40.6235 3.94215 39.7331 3.93409C37.6275 3.91502 35.5225 3.89596 33.4218 3.98359C31.4111 4.06612 29.9158 5.18124 29.0796 7.05149C28.8428 7.58161 28.6639 8.13774 28.4849 8.6942C28.4267 8.87509 28.3685 9.05601 28.3083 9.23608C28.2211 9.49818 28.1441 9.76349 28.063 10.0427C27.9974 10.2686 27.9292 10.5036 27.8508 10.7534H30.305C30.9863 10.7523 31.6676 10.7558 32.3489 10.7593C33.9465 10.7675 35.5441 10.7757 37.1418 10.7253C38.879 10.6691 40.3024 9.81209 41.1106 8.30359C41.6005 7.38891 41.9436 6.39609 42.2948 5.37975ZM27.4802 11.4462C27.529 11.2959 27.579 11.142 27.6309 10.9831C27.5229 10.976 27.4281 10.9683 27.3406 10.9612C27.2123 10.9508 27.0997 10.9416 26.984 10.9375H23.3483C22.2397 10.9344 21.1596 11.2895 20.2685 11.95C19.3773 12.6105 18.7225 13.5413 18.4013 14.6042C18.1765 15.3291 17.9344 16.0453 17.6921 16.7621C17.6075 17.0126 17.5228 17.2631 17.4388 17.5141L17.4326 17.5327C16.7335 19.6127 16.0343 21.6928 15.3352 23.7746C15.026 24.6953 14.7228 25.6203 14.4196 26.5454C14.2914 26.9366 14.1632 27.3279 14.0345 27.7188C13.8118 28.4195 13.584 29.1219 13.3333 29.8911H13.8276C14.2313 29.8911 14.6352 29.8936 15.0392 29.8961C15.8473 29.9012 16.6557 29.9063 17.4634 29.8911C17.9286 29.8875 18.3917 29.8285 18.843 29.7155C20.405 29.2958 21.6145 28.3773 22.2474 26.8758C22.6305 25.9676 22.9354 25.0267 23.2402 24.0864C23.3538 23.7359 23.4673 23.3856 23.5849 23.037C23.6981 22.7057 23.7511 22.5428 23.8631 22.4628C23.9714 22.3855 24.1349 22.3855 24.4614 22.3855C25.0305 22.3855 25.6013 22.3888 26.1722 22.3921C27.3142 22.3988 28.4565 22.4054 29.5855 22.3855C31.2789 22.3556 32.5919 21.5531 33.5982 20.229C34.1178 19.5515 34.36 18.7511 34.6024 17.9495C34.71 17.5938 34.8177 17.2379 34.9497 16.8924C35.0259 16.6944 35.086 16.4907 35.154 16.2599C35.1861 16.1509 35.22 16.0358 35.2583 15.9125H34.6219H26.6054C26.0497 15.9125 26.0076 15.8668 26.1829 15.34C26.384 14.7243 26.5917 14.11 26.7993 13.4958C26.9139 13.157 27.0284 12.8183 27.1418 12.4793C27.2541 12.1417 27.3639 11.804 27.4802 11.4462Z" fill="url(#paint0_linear_32_1057)"/>
</g>
</g>
<path d="M50.9465 6.12001H63.1058V9.15319H54.299V14.1021H62.6003V17.1352H54.299V24.9576H50.9465V6.12001ZM70.8626 6.12001H73.7627L81.8778 24.9576H78.0464L76.2903 20.6473H68.122L66.4192 24.9576H62.6677L70.8626 6.12001ZM75.1196 17.7738L72.2195 10.111L69.2661 17.7738H75.1196ZM84.051 6.12001H89.1595L94.1882 19.317L99.2701 6.12001H104.325V24.9576H101.133V9.31283H101.079L95.3589 24.9576H93.0175L87.297 9.31283H87.2438V24.9576H84.051V6.12001Z" fill="white"/>
<path d="M111.205 7.53219H112.908L117.315 23.2333H117.365L121.848 7.53219H123.951L128.434 23.2333H128.484L132.891 7.53219H134.594L129.436 25.2617H127.407L122.925 9.48544H122.875L118.392 25.2617H116.364L111.205 7.53219ZM144.792 20.4036C144.792 20.9712 144.792 21.4804 144.792 21.9312C144.808 22.3819 144.825 22.7993 144.842 23.1833C144.859 23.5672 144.875 23.9262 144.892 24.2601C144.925 24.5939 144.967 24.9278 145.017 25.2617H143.615C143.515 24.6941 143.465 24.0681 143.465 23.3836H143.414C142.98 24.1348 142.438 24.6858 141.787 25.0363C141.152 25.3869 140.343 25.5622 139.358 25.5622C138.857 25.5622 138.364 25.4954 137.88 25.3619C137.396 25.245 136.962 25.053 136.578 24.7859C136.194 24.5021 135.877 24.1432 135.626 23.7091C135.393 23.2751 135.276 22.7492 135.276 22.1315C135.276 21.2467 135.501 20.5455 135.952 20.028C136.403 19.5105 136.954 19.1265 137.605 18.8761C138.273 18.609 138.974 18.442 139.708 18.3752C140.46 18.2918 141.119 18.25 141.687 18.25H143.439V17.5489C143.439 16.5472 143.131 15.8293 142.513 15.3953C141.895 14.9612 141.119 14.7442 140.184 14.7442C138.849 14.7442 137.672 15.1783 136.653 16.0464L135.777 15.0197C136.328 14.4854 137.012 14.0848 137.83 13.8177C138.648 13.5338 139.433 13.3919 140.184 13.3919C141.586 13.3919 142.705 13.7258 143.54 14.3936C144.374 15.0447 144.792 16.1048 144.792 17.5739V20.4036ZM141.787 19.452C141.152 19.452 140.535 19.4938 139.934 19.5772C139.349 19.6607 138.815 19.8026 138.331 20.003C137.864 20.2033 137.488 20.4704 137.204 20.8043C136.92 21.1382 136.778 21.5555 136.778 22.0564C136.778 22.407 136.854 22.7242 137.004 23.008C137.171 23.2751 137.379 23.5005 137.63 23.6841C137.88 23.851 138.156 23.9846 138.456 24.0848C138.773 24.1682 139.091 24.21 139.408 24.21C140.209 24.21 140.869 24.0931 141.386 23.8594C141.904 23.6257 142.313 23.3252 142.613 22.9579C142.93 22.5739 143.147 22.1482 143.264 21.6808C143.381 21.1966 143.439 20.7125 143.439 20.2283V19.452H141.787ZM149.038 6.33018H150.54V25.2617H149.038V6.33018ZM155.078 6.33018H156.581V25.2617H155.078V6.33018ZM171.061 23.0831C170.476 23.9679 169.75 24.6023 168.882 24.9863C168.03 25.3702 167.087 25.5622 166.052 25.5622C165.167 25.5622 164.366 25.412 163.648 25.1115C162.93 24.811 162.313 24.3936 161.795 23.8594C161.278 23.3085 160.877 22.6657 160.593 21.9312C160.326 21.1799 160.192 20.3535 160.192 19.452C160.192 18.5839 160.334 17.7826 160.618 17.048C160.902 16.3135 161.303 15.6791 161.82 15.1449C162.338 14.5939 162.947 14.1682 163.648 13.8677C164.349 13.5505 165.126 13.3919 165.977 13.3919C166.862 13.3919 167.638 13.5505 168.306 13.8677C168.99 14.1682 169.558 14.5773 170.009 15.0948C170.476 15.5956 170.827 16.1716 171.061 16.8227C171.294 17.4737 171.411 18.1332 171.411 18.801V19.8527H161.695C161.695 20.1699 161.753 20.5789 161.87 21.0798C162.004 21.5639 162.237 22.0397 162.571 22.5071C162.905 22.9746 163.348 23.3752 163.899 23.7091C164.466 24.043 165.192 24.21 166.077 24.21C166.845 24.21 167.588 24.0263 168.306 23.659C169.024 23.2918 169.575 22.7909 169.959 22.1565L171.061 23.0831ZM169.909 18.5005C169.909 17.9829 169.8 17.4988 169.583 17.048C169.383 16.5973 169.099 16.205 168.732 15.8711C168.381 15.5205 167.955 15.245 167.454 15.0447C166.97 14.8444 166.453 14.7442 165.902 14.7442C165.084 14.7442 164.399 14.9111 163.848 15.245C163.314 15.5789 162.889 15.9629 162.571 16.397C162.254 16.831 162.029 17.2567 161.895 17.6741C161.762 18.0747 161.695 18.3502 161.695 18.5005H169.909ZM180.418 15.0447H177.112V22.5823C177.112 23.0998 177.254 23.5005 177.538 23.7843C177.822 24.0681 178.214 24.21 178.715 24.21C178.999 24.21 179.282 24.1766 179.566 24.1098C179.867 24.0263 180.151 23.9262 180.418 23.8093L180.543 25.1616C180.259 25.2617 179.934 25.3535 179.566 25.437C179.199 25.5205 178.873 25.5622 178.59 25.5622C178.055 25.5622 177.596 25.4787 177.212 25.3118C176.828 25.1616 176.52 24.9529 176.286 24.6858C176.052 24.4186 175.877 24.1098 175.76 23.7592C175.66 23.3919 175.61 22.9996 175.61 22.5823V15.0447H173.106V13.6924H175.61V10.3619H177.112V13.6924H180.418V15.0447Z" fill="white"/>
<defs>
<linearGradient id="paint0_linear_32_1057" x1="28.418" y1="3.58577" x2="28.418" y2="29.9012" gradientUnits="userSpaceOnUse">
<stop stop-color="#1709B5"/>
<stop offset="1" stop-color="#F539C0"/>
</linearGradient>
<clipPath id="clip0_32_1057">
<rect width="29.0939" height="25.2147" fill="white" transform="translate(13.4902 4.39258)"/>
</clipPath>
<clipPath id="clip1_32_1057">
<rect width="30.1642" height="26.3134" fill="white" transform="translate(13.3385 3.59167)"/>
</clipPath>
</defs>
</svg>
